
<svg width="512" height="512" viewBox="0 0 512 512" xmlns="http://www.w3.org/2000/svg">
  <defs>
    <radialGradient id="bg" cx="50%" cy="42%" r="70%">
      <stop offset="0%" stop-color="#0a1430"/>
      <stop offset="100%" stop-color="#04060f"/>
    </radialGradient>
    <radialGradient id="lens" cx="40%" cy="35%" r="75%">
      <stop offset="0%" stop-color="#5aa6ff"/>
      <stop offset="55%" stop-color="#3a8fff"/>
      <stop offset="100%" stop-color="#0a2a66"/>
    </radialGradient>
    <linearGradient id="brass" x1="0" y1="0" x2="1" y2="1">
      <stop offset="0%" stop-color="#f8d878"/>
      <stop offset="100%" stop-color="#b8902f"/>
    </linearGradient>
  </defs>

  <rect width="512" height="512" rx="96" fill="url(#bg)"/>
  <rect x="8" y="8" width="496" height="496" rx="90" fill="none" stroke="#3a8fff" stroke-opacity="0.5" stroke-width="3"/>

  <!-- Engrenagens de fundo -->
  <rect x="114.4" y="60" width="11.200000000000001" height="21" rx="2" fill="rgba(58,143,255,0.16)" transform="rotate(0 120 130)"/><rect x="114.4" y="60" width="11.200000000000001" height="21" rx="2" fill="rgba(58,143,255,0.16)" transform="rotate(32.72727272727273 120 130)"/><rect x="114.4" y="60" width="11.200000000000001" height="21" rx="2" fill="rgba(58,143,255,0.16)" transform="rotate(65.45454545454545 120 130)"/><rect x="114.4" y="60" width="11.200000000000001" height="21" rx="2" fill="rgba(58,143,255,0.16)" transform="rotate(98.18181818181819 120 130)"/><rect x="114.4" y="60" width="11.200000000000001" height="21" rx="2" fill="rgba(58,143,255,0.16)" transform="rotate(130.9090909090909 120 130)"/><rect x="114.4" y="60" width="11.200000000000001" height="21" rx="2" fill="rgba(58,143,255,0.16)" transform="rotate(163.63636363636363 120 130)"/><rect x="114.4" y="60" width="11.200000000000001" height="21" rx="2" fill="rgba(58,143,255,0.16)" transform="rotate(196.36363636363637 120 130)"/><rect x="114.4" y="60" width="11.200000000000001" height="21" rx="2" fill="rgba(58,143,255,0.16)" transform="rotate(229.0909090909091 120 130)"/><rect x="114.4" y="60" width="11.200000000000001" height="21" rx="2" fill="rgba(58,143,255,0.16)" transform="rotate(261.8181818181818 120 130)"/><rect x="114.4" y="60" width="11.200000000000001" height="21" rx="2" fill="rgba(58,143,255,0.16)" transform="rotate(294.54545454545456 120 130)"/><rect x="114.4" y="60" width="11.200000000000001" height="21" rx="2" fill="rgba(58,143,255,0.16)" transform="rotate(327.27272727272725 120 130)"/>
    <circle cx="120" cy="130" r="56" fill="none" stroke="rgba(58,143,255,0.16)" stroke-width="7.7"/>
    <circle cx="120" cy="130" r="14" fill="none" stroke="rgba(58,143,255,0.16)" stroke-width="6.3"/>
  <rect x="395.52" y="324" width="8.96" height="16.799999999999997" rx="2" fill="rgba(240,192,64,0.16)" transform="rotate(0 400 380)"/><rect x="395.52" y="324" width="8.96" height="16.799999999999997" rx="2" fill="rgba(240,192,64,0.16)" transform="rotate(40 400 380)"/><rect x="395.52" y="324" width="8.96" height="16.799999999999997" rx="2" fill="rgba(240,192,64,0.16)" transform="rotate(80 400 380)"/><rect x="395.52" y="324" width="8.96" height="16.799999999999997" rx="2" fill="rgba(240,192,64,0.16)" transform="rotate(120 400 380)"/><rect x="395.52" y="324" width="8.96" height="16.799999999999997" rx="2" fill="rgba(240,192,64,0.16)" transform="rotate(160 400 380)"/><rect x="395.52" y="324" width="8.96" height="16.799999999999997" rx="2" fill="rgba(240,192,64,0.16)" transform="rotate(200 400 380)"/><rect x="395.52" y="324" width="8.96" height="16.799999999999997" rx="2" fill="rgba(240,192,64,0.16)" transform="rotate(240 400 380)"/><rect x="395.52" y="324" width="8.96" height="16.799999999999997" rx="2" fill="rgba(240,192,64,0.16)" transform="rotate(280 400 380)"/><rect x="395.52" y="324" width="8.96" height="16.799999999999997" rx="2" fill="rgba(240,192,64,0.16)" transform="rotate(320 400 380)"/>
    <circle cx="400" cy="380" r="44.800000000000004" fill="none" stroke="rgba(240,192,64,0.16)" stroke-width="6.16"/>
    <circle cx="400" cy="380" r="11.200000000000001" fill="none" stroke="rgba(240,192,64,0.16)" stroke-width="5.04"/>
  <rect x="406.8" y="80" width="6.4" height="12" rx="2" fill="rgba(58,143,255,0.12)" transform="rotate(0 410 120)"/><rect x="406.8" y="80" width="6.4" height="12" rx="2" fill="rgba(58,143,255,0.12)" transform="rotate(45 410 120)"/><rect x="406.8" y="80" width="6.4" height="12" rx="2" fill="rgba(58,143,255,0.12)" transform="rotate(90 410 120)"/><rect x="406.8" y="80" width="6.4" height="12" rx="2" fill="rgba(58,143,255,0.12)" transform="rotate(135 410 120)"/><rect x="406.8" y="80" width="6.4" height="12" rx="2" fill="rgba(58,143,255,0.12)" transform="rotate(180 410 120)"/><rect x="406.8" y="80" width="6.4" height="12" rx="2" fill="rgba(58,143,255,0.12)" transform="rotate(225 410 120)"/><rect x="406.8" y="80" width="6.4" height="12" rx="2" fill="rgba(58,143,255,0.12)" transform="rotate(270 410 120)"/><rect x="406.8" y="80" width="6.4" height="12" rx="2" fill="rgba(58,143,255,0.12)" transform="rotate(315 410 120)"/>
    <circle cx="410" cy="120" r="32" fill="none" stroke="rgba(58,143,255,0.12)" stroke-width="4.4"/>
    <circle cx="410" cy="120" r="8" fill="none" stroke="rgba(58,143,255,0.12)" stroke-width="3.5999999999999996"/>

  <!-- Óculos steampunk -->
  <g transform="translate(256,270)">
    <!-- alças -->
    <path d="M-150 -10 Q-165 -50 -120 -58 L-70 -66" fill="none" stroke="#9a7a28" stroke-width="22" stroke-linecap="round"/>
    <path d="M150 -10 Q165 -50 120 -58 L70 -66" fill="none" stroke="#9a7a28" stroke-width="22" stroke-linecap="round"/>
    <!-- ponte -->
    <rect x="-22" y="-14" width="44" height="30" rx="7" fill="url(#brass)"/>
    
    <circle cx="-78" cy="0" r="70" fill="none" stroke="url(#brass)" stroke-width="12"/>
    <circle cx="-78" cy="0" r="60" fill="none" stroke="#8a6c22" stroke-width="5"/>
    <circle cx="-78" cy="0" r="55" fill="url(#lens)"/>
    <ellipse cx="-98" cy="-22" rx="18" ry="26" fill="rgba(255,255,255,0.25)" transform="rotate(-25 -98 -22)"/>
    <circle cx="-13" cy="0" r="3.2" fill="#ffe8a0"/><circle cx="-21.70834875401148" cy="32.49999999999999" r="3.2" fill="#ffe8a0"/><circle cx="-45.49999999999999" cy="56.29165124598851" r="3.2" fill="#ffe8a0"/><circle cx="-78" cy="65" r="3.2" fill="#ffe8a0"/><circle cx="-110.49999999999999" cy="56.29165124598852" r="3.2" fill="#ffe8a0"/><circle cx="-134.29165124598853" cy="32.49999999999999" r="3.2" fill="#ffe8a0"/><circle cx="-143" cy="7.960204194457796e-15" r="3.2" fill="#ffe8a0"/><circle cx="-134.29165124598853" cy="-32.49999999999998" r="3.2" fill="#ffe8a0"/><circle cx="-110.50000000000003" cy="-56.291651245988504" r="3.2" fill="#ffe8a0"/><circle cx="-78.00000000000001" cy="-65" r="3.2" fill="#ffe8a0"/><circle cx="-45.49999999999999" cy="-56.29165124598851" r="3.2" fill="#ffe8a0"/><circle cx="-21.708348754011503" cy="-32.50000000000003" r="3.2" fill="#ffe8a0"/>
    
    <circle cx="78" cy="0" r="70" fill="none" stroke="url(#brass)" stroke-width="12"/>
    <circle cx="78" cy="0" r="60" fill="none" stroke="#8a6c22" stroke-width="5"/>
    <circle cx="78" cy="0" r="55" fill="url(#lens)"/>
    <ellipse cx="58" cy="-22" rx="18" ry="26" fill="rgba(255,255,255,0.25)" transform="rotate(-25 58 -22)"/>
    <circle cx="143" cy="0" r="3.2" fill="#ffe8a0"/><circle cx="134.29165124598853" cy="32.49999999999999" r="3.2" fill="#ffe8a0"/><circle cx="110.5" cy="56.29165124598851" r="3.2" fill="#ffe8a0"/><circle cx="78" cy="65" r="3.2" fill="#ffe8a0"/><circle cx="45.500000000000014" cy="56.29165124598852" r="3.2" fill="#ffe8a0"/><circle cx="21.70834875401148" cy="32.49999999999999" r="3.2" fill="#ffe8a0"/><circle cx="13" cy="7.960204194457796e-15" r="3.2" fill="#ffe8a0"/><circle cx="21.708348754011475" cy="-32.49999999999998" r="3.2" fill="#ffe8a0"/><circle cx="45.49999999999997" cy="-56.291651245988504" r="3.2" fill="#ffe8a0"/><circle cx="77.99999999999999" cy="-65" r="3.2" fill="#ffe8a0"/><circle cx="110.5" cy="-56.29165124598851" r="3.2" fill="#ffe8a0"/><circle cx="134.2916512459885" cy="-32.50000000000003" r="3.2" fill="#ffe8a0"/>
  </g>

  <!-- legenda -->
  <text x="256" y="468" text-anchor="middle" font-family="Arial, sans-serif" font-size="40" font-weight="700" letter-spacing="6" fill="#f0c040" fill-opacity="0.9">VSYSTEM</text>
</svg>